<?xml version="1.0" standalone="no"?>
<!DOCTYPE svg PUBLIC "-//W3C//DTD SVG 20010904//EN"
 "http://www.w3.org/TR/2001/REC-SVG-20010904/DTD/svg10.dtd">
<svg version="1.0" xmlns="http://www.w3.org/2000/svg"
 width="1080.000000pt" height="1080.000000pt" viewBox="0 0 1080.000000 1080.000000"
 preserveAspectRatio="xMidYMid meet">

<g transform="translate(0.000000,1080.000000) scale(0.100000,-0.100000)"
fill="#000000" stroke="none">
<path d="M2913 6715 c3 -11 8 -60 12 -110 3 -49 8 -97 11 -105 3 -13 -11 -15
-89 -16 -213 -1 -417 -115 -585 -326 -162 -205 -191 -430 -71 -570 87 -102
238 -133 363 -75 143 66 280 219 355 396 40 95 81 254 82 323 1 29 4 64 8 77
6 24 7 23 47 -22 27 -30 47 -67 60 -109 28 -93 24 -305 -11 -568 -15 -113 -31
-239 -35 -280 -5 -41 -13 -104 -19 -140 -6 -36 -17 -137 -26 -225 -18 -183
-39 -336 -60 -447 -31 -162 -42 -228 -37 -228 2 0 31 16 64 36 32 20 62 33 66
30 3 -4 11 -65 17 -136 5 -70 13 -131 16 -135 4 -3 12 26 19 65 7 40 27 144
45 233 19 89 32 164 30 166 -3 2 -32 -13 -65 -33 -34 -20 -64 -36 -67 -36 -6
0 1 98 16 205 27 197 82 541 111 700 5 28 15 91 21 140 11 85 16 96 77 195 87
140 246 343 324 415 210 192 479 279 647 209 70 -29 139 -118 142 -184 1 -40
8 -12 22 93 13 96 13 98 -8 121 -63 68 -170 106 -300 106 -99 0 -179 -19 -277
-64 -223 -101 -366 -250 -577 -601 -12 -20 -12 -20 -6 0 3 11 9 72 12 135 12
245 -67 430 -213 501 -32 15 -44 27 -44 42 0 40 -51 212 -67 227 -14 13 -15
13 -10 -5z m12 -422 c-14 -138 -68 -304 -137 -421 -43 -74 -179 -210 -244
-245 -75 -39 -128 -44 -192 -17 -31 13 -62 37 -79 59 -26 34 -28 42 -28 131 0
87 3 100 33 159 69 136 208 275 338 340 99 49 138 60 233 60 l83 1 -7 -67z"/>
<path d="M6007 6016 c-263 -74 -288 -436 -38 -549 67 -31 187 -29 259 2 73 33
134 103 156 179 20 73 20 101 0 174 -42 149 -218 239 -377 194z m173 -148 c57
-39 75 -72 75 -138 0 -66 -18 -99 -75 -137 -24 -17 -47 -23 -84 -23 -96 0
-156 61 -156 160 0 99 60 160 156 160 37 0 60 -6 84 -22z"/>
<path d="M4790 5735 l0 -285 70 0 70 0 0 85 0 85 68 0 c91 0 160 22 199 62 40
41 53 76 53 138 0 62 -13 97 -53 138 -47 48 -106 62 -269 62 l-138 0 0 -285z
m300 145 c13 -13 20 -33 20 -59 0 -58 -33 -81 -116 -81 l-64 0 0 80 0 80 70 0
c57 0 74 -4 90 -20z"/>
<path d="M5331 5743 c-61 -153 -111 -281 -111 -285 0 -5 30 -8 68 -8 l67 0 23
60 24 60 108 0 108 0 22 -60 22 -60 70 0 c63 0 69 2 64 18 -4 9 -55 137 -113
285 l-107 267 -67 0 -67 0 -111 -277z m218 28 c17 -47 31 -86 31 -88 0 -2 -31
-3 -70 -3 -38 0 -70 3 -70 6 0 20 66 182 72 176 4 -4 20 -45 37 -91z"/>
<path d="M6460 5735 l0 -285 195 0 195 0 0 60 0 60 -125 0 -125 0 0 225 0 225
-70 0 -70 0 0 -285z"/>
<path d="M6981 5743 c-61 -153 -111 -281 -111 -285 0 -5 30 -8 68 -8 l67 0 23
60 24 60 108 0 108 0 22 -60 22 -60 70 0 c63 0 69 2 64 18 -4 9 -55 137 -113
285 l-107 267 -67 0 -67 0 -111 -277z m218 28 c17 -47 31 -86 31 -88 0 -2 -31
-3 -70 -3 -38 0 -70 3 -70 6 0 20 66 182 72 176 4 -4 20 -45 37 -91z"/>
<path d="M4290 5622 c-113 -216 -344 -413 -585 -497 -67 -24 -134 -25 -167 -3
-41 27 -79 99 -85 162 -15 145 82 256 222 256 l38 0 -20 -22 c-66 -71 -89
-198 -47 -255 52 -72 145 -79 214 -16 82 74 94 245 23 325 -14 16 -14 18 1 24
9 3 16 13 16 21 0 12 -8 14 -37 10 -21 -4 -92 -7 -158 -9 -91 -2 -129 -7 -156
-21 -59 -29 -112 -81 -139 -133 -21 -42 -25 -63 -25 -139 0 -95 18 -148 68
-202 20 -22 20 -23 1 -23 -39 0 -122 49 -187 110 -37 34 -67 57 -67 51 0 -47
110 -171 183 -206 l37 -17 -38 -28 c-71 -53 -124 -133 -137 -209 -18 -108 67
-234 181 -267 141 -41 289 20 405 167 46 58 81 133 77 164 -3 22 -10 15 -63
-57 -150 -204 -356 -266 -477 -143 -63 63 -58 148 13 242 57 76 110 104 220
115 214 21 404 115 581 286 49 48 95 96 101 107 9 16 48 265 43 272 -1 1 -17
-28 -36 -65z m-456 -135 c52 -107 -38 -252 -120 -193 -40 30 -16 144 44 209
34 35 52 31 76 -16z"/>
<path d="M5385 5221 c-44 -11 -87 -36 -114 -65 -19 -20 -26 -40 -29 -84 -6
-85 18 -114 142 -177 110 -55 132 -81 101 -115 -24 -27 -111 -27 -195 -1 l-61
19 3 -61 3 -61 45 -14 c58 -18 214 -20 262 -4 47 17 95 71 104 117 17 92 -34
163 -145 205 -34 12 -73 31 -86 42 -30 23 -33 63 -6 78 29 15 112 12 161 -5
23 -8 44 -15 46 -15 2 0 4 25 4 56 0 53 -1 55 -34 69 -42 18 -160 27 -201 16z"/>
<path d="M4790 4935 l0 -285 200 0 200 0 0 60 0 60 -130 0 -130 0 0 55 0 55
95 0 95 0 0 55 0 55 -95 0 -95 0 0 55 0 55 130 0 130 0 0 60 0 60 -200 0 -200
0 0 -285z"/>
<path d="M5660 5160 l0 -60 80 0 80 0 0 -225 0 -225 70 0 70 0 0 225 0 225 80
0 80 0 0 60 0 60 -230 0 -230 0 0 -60z"/>
<path d="M6170 4935 l0 -285 200 0 200 0 0 60 0 60 -130 0 -130 0 0 55 0 55
95 0 95 0 0 55 0 55 -95 0 -95 0 0 55 0 55 130 0 130 0 0 60 0 60 -200 0 -200
0 0 -285z"/>
<path d="M6630 4935 l0 -285 70 0 70 0 0 115 0 115 95 0 95 0 0 55 0 55 -95 0
-95 0 0 55 0 55 130 0 130 0 0 60 0 60 -200 0 -200 0 0 -285z"/>
<path d="M7091 4943 c-61 -153 -111 -281 -111 -285 0 -5 30 -8 68 -8 l67 0 23
60 24 60 108 0 108 0 22 -60 22 -60 70 0 c63 0 69 2 64 18 -4 9 -55 137 -113
285 l-107 267 -67 0 -67 0 -111 -277z m218 28 c17 -47 31 -86 31 -88 0 -2 -31
-3 -70 -3 -38 0 -70 3 -70 6 0 20 66 182 72 176 4 -4 20 -45 37 -91z"/>
<path d="M7630 4935 l0 -285 70 0 70 0 2 168 3 167 104 -167 104 -168 69 0 68
0 0 285 0 285 -70 0 -70 0 -2 -171 -3 -172 -105 172 -104 171 -68 0 -68 0 0
-285z"/>
<path d="M8150 5215 c0 -3 45 -82 100 -175 l100 -169 0 -110 0 -111 70 0 70 0
0 106 0 107 105 173 c58 96 105 176 105 179 0 3 -31 5 -69 5 l-70 0 -66 -110
c-36 -60 -69 -110 -73 -110 -4 0 -34 49 -67 108 l-60 107 -73 3 c-39 2 -72 0
-72 -3z"/>
</g>
</svg>
